<svg width="436" height="83" viewBox="0 0 436 83" fill="none" xmlns="http://www.w3.org/2000/svg">
<path d="M56.1521 8.3508C53.9593 7.12915 47.6734 7.88451 40.1238 10.2302C26.9108 19.2953 15.7594 32.6506 14.9812 54.0968C14.8395 54.6096 13.5363 54.0271 13.2785 53.8685C9.71051 47.0043 8.29693 39.7765 11.2761 29.3496C11.8314 28.4217 10.016 27.2794 9.68953 27.6056C9.0356 28.2631 6.30952 31.1779 4.49895 34.33C-4.47571 49.9563 1.39333 69.9785 17.095 78.7409C32.7935 87.517 52.6171 81.8559 61.358 66.0945C71.4702 47.903 62.0806 11.6742 56.1524 8.35135L56.1521 8.3508Z" fill="#647BFF"/>
<path d="M112.344 17.0815C93.7303 17.0815 80.2195 30.9706 80.2195 50.1073C80.2195 69.4009 93.6951 82.876 112.992 82.876C122.739 82.876 130.456 79.8168 136.594 73.5193C138.426 71.5327 138.624 69.6184 138.624 68.8865C138.624 65.7669 136.312 63.5008 133.128 63.5008C131.523 63.5008 130.18 64.1093 128.64 65.5385C125.165 68.7886 120.588 72.1087 112.992 72.1087C102.43 72.1087 93.8396 64.149 93.2984 53.9273H135.338C139.91 53.9273 142.13 51.7821 142.13 47.3708C142.13 46.072 142.13 45.1348 141.87 43.2858C139.605 26.8784 128.569 17.0836 112.345 17.0836L112.344 17.0815ZM112.344 27.3264C122.437 27.3264 128.914 33.7825 129.313 44.2025H93.3115C94.2567 34.5589 102.38 27.3264 112.343 27.3264H112.344Z" fill="#647BFF"/>
<path d="M182.274 17.0815C173.818 17.0815 165.446 21.9615 162.175 28.7392V24.5505C162.175 18.0616 157.165 17.7329 156.161 17.7329C153.193 17.7329 150.02 19.5237 150.02 24.5505V75.1422C150.02 81.8805 155.353 82.221 156.422 82.221C157.49 82.221 162.826 81.8805 162.826 75.1422V48.0214C162.826 36.2212 169.488 27.9792 179.026 27.9792C188.265 27.9792 192.757 34.0645 192.757 46.5851V75.1422C192.757 81.8805 198.093 82.221 199.162 82.221C200.23 82.221 205.564 81.8805 205.564 75.1422V42.5485C205.564 30.2376 199.445 17.0853 182.274 17.0853V17.0815Z" fill="#647BFF"/>
<path d="M263.508 17.734C260.549 17.734 258.403 19.4666 257.125 22.8752L239.604 67.0975L222.217 22.8752C220.855 19.4154 218.725 17.734 215.703 17.734C212.172 17.734 209.299 20.4992 209.299 23.8989C209.299 24.7404 209.394 25.8316 210.103 27.5359L230.238 75.256C232.638 81.0128 236.584 82.2208 239.474 82.2208C242.361 82.2208 246.31 81.0128 248.714 75.2587L268.981 27.2734C269.673 25.5901 269.78 24.3542 269.78 23.7693C269.78 20.3302 267.081 17.7349 263.508 17.7349V17.734Z" fill="#647BFF"/>
<path d="M300.733 17.0815C292.542 17.0815 284.914 19.3711 279.255 23.5236C277.336 24.8525 276.403 26.5103 276.403 28.5948C276.403 31.465 278.586 33.715 281.379 33.715C282.586 33.715 283.938 33.2323 285.179 32.3601C290.043 29.1054 294.615 27.5876 299.562 27.5876C309.031 27.5876 314.466 32.4209 314.466 40.8496V42.2463C293.211 42.2695 271.593 44.846 271.593 63.4054C271.593 76.7628 282.966 82.7434 294.237 82.7434C303.213 82.7434 310.381 79.1736 314.981 72.4142V75.6645C314.981 80.5049 318.219 82.2213 320.997 82.2213C321.582 82.2213 326.749 82.037 326.749 75.6645V41.6296C326.749 26.2552 317.021 17.0782 300.732 17.0782L300.733 17.0815ZM311.772 51.7099H314.467V54.6709C314.467 65.5011 307.595 72.4981 296.966 72.4981C294.081 72.4981 284.663 71.8243 284.663 63.1439C284.663 52.8943 300.134 51.7099 311.772 51.7099Z" fill="#647BFF"/>
<path d="M360.105 29.4131C365.708 29.4131 365.991 25.0368 365.991 24.16C365.991 21.5578 364.444 18.7763 360.105 18.7763H348.583V7.07883C348.583 1.85367 345.205 0 342.311 0C341.242 0 335.909 0.340486 335.909 7.07883V62.626C335.909 75.4449 342.209 82.2205 354.13 82.2205C357.215 82.2205 360.221 81.6724 362.186 80.7538C364.44 79.6254 365.731 77.7695 365.731 75.664C365.731 72.6937 363.584 70.5395 360.625 70.5395C360.054 70.5395 359.241 70.6817 358.344 70.9404C357.248 71.2158 356.504 71.3227 355.691 71.3227C350.841 71.3227 348.583 68.1449 348.583 61.3204V29.4076H360.105V29.4131Z" fill="#647BFF"/>
<path d="M402.447 17.0815C383.078 17.0815 369.025 30.8612 369.025 49.8447C369.025 59.0873 372.431 67.5112 378.61 73.5636C384.742 79.5674 393.207 82.8738 402.448 82.8738C421.575 82.8738 436 68.6746 436 49.8453C436 30.8614 421.886 17.082 402.448 17.082L402.447 17.0815ZM402.447 71.975C389.164 71.975 382.219 60.8415 382.219 49.8433C382.219 34.7301 392.704 27.8474 402.447 27.8474C412.189 27.8474 422.675 34.7301 422.675 49.8433C422.675 65.0501 412.189 71.975 402.447 71.975Z" fill="#647BFF"/>
</svg>
