<svg width="429" height="131" viewBox="0 0 429 131" fill="none" xmlns="http://www.w3.org/2000/svg">
<path d="M392.889 63.7482H377.963C368.333 63.7482 363.037 70.9705 363.037 83.489V128.267H334.148V63.7482H322.111C312.481 63.7482 307.185 70.9705 307.185 83.489V128.267H278.296V39.6742H307.185V53.1556C312 42.563 318.259 39.6742 327.889 39.6742H363.037V53.1556C367.852 42.563 374.111 39.6742 383.741 39.6742H393.37L392.889 63.7482ZM271.556 90.7112H211.852C213.296 100.822 219.556 106.119 229.667 106.119C237.37 106.119 242.667 102.748 244.593 97.4519L270.111 104.674C263.852 120.082 248.444 129.23 229.667 129.23C198.37 129.23 183.926 104.674 183.926 83.489C183.926 62.7853 196.444 38.2297 227.741 38.2297C260.963 38.2297 272.037 63.2668 272.037 82.0445C272.037 86.3779 272.037 88.7853 271.556 90.7112V90.7112ZM244.111 73.8593C243.63 66.1556 237.852 59.4149 228.222 59.4149C219.074 59.4149 213.778 63.2668 211.852 73.8593H244.111ZM133.852 128.267H158.889L190.667 40.1556H161.778L146.37 91.6742L130.963 39.6742H102.074L133.852 128.267ZM16.3704 128.267H44.7778V63.7482H72.2222V128.267H100.63V39.6742H44.7778V34.3779C44.7778 28.6001 49.1111 24.7482 55.3704 24.7482H72.2222V0.674164H51.0371C30.3333 0.674164 16.3704 13.6742 16.3704 32.4519V39.6742H0V63.7482H16.3704V128.267Z" fill="#647BFF"/>
<path d="M411.185 130.674C420.815 130.674 429 122.489 429 112.859C429 103.23 420.815 95.0446 411.185 95.0446C401.556 95.0446 393.37 103.23 393.37 112.859C393.37 122.489 401.556 130.674 411.185 130.674Z" fill="#647BFF"/>
</svg>
