<svg width="433" height="120" viewBox="0 0 433 120" fill="none" xmlns="http://www.w3.org/2000/svg">
<path d="M118.686 24.5302C98.9959 24.5302 87.973 37.3632 84.8176 50.575C81.2414 43.8429 78.5909 34.8387 76.5293 26.4656H49.3086V60.3366C49.3086 72.6227 43.713 81.7111 32.7742 81.7111C21.8355 81.7111 15.5667 72.6227 15.5667 60.3366L15.6929 26.4656H0V60.3366C0 70.2244 3.19749 79.1865 9.04552 85.582C15.0618 92.1879 23.2659 95.6381 32.7742 95.6381C51.7067 95.6381 64.9174 81.122 64.9174 60.3366V37.5736C66.8948 45.0631 71.6069 59.453 80.6103 72.0757L72.1959 120H88.1413L93.6948 86.0449C95.5039 87.5596 97.4392 88.906 99.5007 90.1262C104.844 93.4923 110.944 95.3857 117.255 95.5961C117.255 95.5961 118.223 95.6381 118.728 95.6381C138.249 95.6381 153.774 80.533 153.774 60.1262C153.774 39.7195 138.207 24.5302 118.686 24.5302ZM118.686 81.669C106.611 81.669 98.6172 72.3282 96.3874 68.7097C99.2483 45.8205 107.621 38.5834 118.686 38.5834C129.624 38.5834 138.123 47.3352 138.123 60.1262C138.123 72.9172 129.624 81.669 118.686 81.669Z" fill="#647BFF"/>
<path d="M344.151 33.7027V26.4656H328.752V93.4923H344.361V67.237C344.361 51.0799 345.833 39.467 367.501 40.9818V25.6662C357.403 24.9088 349.536 27.0126 344.151 33.7027Z" fill="#647BFF"/>
<path d="M235.773 26.4656L224.455 73.338L212.38 26.4656H192.522L180.406 73.338L169.13 26.4656H153.311L170.645 93.5344H189.409L202.451 45.9046L215.368 93.5344H234.132L252.475 26.4656H235.773Z" fill="#647BFF"/>
<path d="M286.848 24.5302C267.201 24.5302 251.802 39.7616 251.802 60.1262C251.802 80.4909 267.201 95.5961 286.848 95.5961C306.37 95.5961 321.894 80.4909 321.894 60.1262C321.894 39.7616 306.412 24.5302 286.848 24.5302ZM286.848 81.7111C275.741 81.7111 267.411 72.9593 267.411 60.1262C267.411 47.2931 275.783 38.5834 286.848 38.5834C297.787 38.5834 306.286 47.3352 306.286 60.1262C306.286 72.9172 297.787 81.7111 286.848 81.7111Z" fill="#647BFF"/>
<path d="M389.883 60.547H393.501L415.295 93.5344H432.923L407.848 56.9705C420.007 52.216 428.169 39.8036 428.169 26.4656H412.602C412.602 40.9397 401.2 46.4095 389.883 46.4095V0H374.232V93.5344H389.841L389.883 60.547Z" fill="#647BFF"/>
</svg>
