<svg width="410" height="100" viewBox="0 0 410 100" fill="none" xmlns="http://www.w3.org/2000/svg">
<path d="M404.98 69.2496C403.711 68.3296 402.705 68.1996 401.874 69.9496C387.615 100.785 363.602 85.3896 366.008 86.7446C371.344 84.2946 385.341 73.0976 383.241 57.5706C381.973 48.0796 373.837 43.8806 365.177 45.4106C350.087 48.0356 344.576 64.3066 347.375 78.6966C347.856 81.1896 348.731 83.2016 349.65 85.2136C332.635 99.0786 325.856 72.8356 325.068 69.6866C325.025 69.5116 338.234 58.5326 341.908 32.3336C345.757 4.9086 337.009 -0.121406 328.043 0.0535944C311.466 0.359594 307.004 34.9576 312.996 63.7816C312.515 63.9126 310.153 65.2246 306.392 65.3566C303.68 56.8266 292.089 49.3476 289.071 52.2346C281.504 59.4516 290.908 73.5346 297.557 74.6286C293.576 99.1666 268.645 93.0866 273.281 62.3386C281.373 47.2916 287.584 24.8536 286.447 11.3386C286.053 6.56959 282.51 0.141594 274.506 0.447594C259.11 1.05959 257.448 35.6576 259.241 60.2386C259.154 59.6266 258.279 63.2126 251.98 65.0066C250.493 56.7396 237.153 48.3856 234.004 52.4096C228.143 59.8896 238.334 73.2296 243.145 74.1476C239.165 98.6856 214.234 92.6056 218.87 61.8576C227.006 46.8106 233.173 24.4166 232.079 10.9016C231.686 6.13359 228.143 -0.296406 220.138 0.0105944C204.742 0.622594 203.08 35.2206 204.874 59.8006C204.786 59.1886 203.911 62.9066 197.35 64.6566C197.132 53.8966 183.748 48.9976 180.511 52.4096C174.781 58.5326 181.823 71.0856 188.34 74.1476C184.36 98.6856 159.429 92.6056 164.065 61.8576C172.157 46.8106 178.368 24.3726 177.231 10.8576C176.881 6.13359 173.338 -0.296406 165.333 0.0105944C149.937 0.622594 148.713 36.9696 150.506 61.5506C145.432 83.2896 128.418 110.408 130.648 56.0406C130.867 52.2346 131.086 50.7906 129.205 49.3476C127.762 48.2546 124.525 48.7786 122.775 48.8226C120.632 48.9106 120.064 50.1786 119.626 52.0596C118.533 56.9586 118.314 61.7256 118.139 68.2426C118.052 71.3046 117.789 72.7046 116.608 76.8596C115.427 81.0146 108.779 88.5816 105.105 87.3136C100.031 85.5636 101.693 71.2606 102.655 61.4196C103.443 53.6346 100.906 50.1796 94.433 48.9096C90.627 48.1236 88.309 48.2546 84.373 46.9856C80.611 45.8056 79.78 38.7196 71.82 41.0816C67.446 42.3936 70.245 51.6216 69.195 58.4896C64.034 92.2116 53.318 93.1296 48.332 76.7716C70.726 21.8356 54.762 0.184594 45.445 0.184594C35.735 0.184594 24.625 6.8776 29.305 49.7416C27.031 49.0856 26.331 48.7356 23.794 48.7356C9.666 48.6916 0 60.1516 0 74.2786C0 88.4066 9.666 99.8666 23.838 99.8666C32.192 99.8666 38.053 96.0606 42.514 90.1996C45.401 94.3556 48.944 99.9536 55.417 99.6916C74.662 98.9476 80.261 59.4516 80.917 57.2216C82.973 57.5266 84.941 58.1396 86.822 58.4456C89.972 58.9266 90.234 60.1956 90.146 63.3446C89.316 90.1996 94.258 99.6046 105.499 99.6046C111.753 99.6046 117.352 93.4366 121.201 89.0626C124.088 95.0116 128.636 99.4286 134.804 99.6036C149.675 99.9536 155.405 76.2476 154.88 79.3536C154.486 81.8016 159.691 99.4286 175.044 99.5166C194.026 99.6036 197.569 78.7406 197.963 75.2416C198.007 74.5416 198.05 74.6286 197.963 75.2416V75.4596C203.999 74.3226 207.104 71.1296 207.104 71.1296C207.104 71.1296 211.959 99.8666 229.849 99.5596C248.438 99.2096 251.98 80.3596 252.418 76.6846C252.462 75.8096 252.505 75.8976 252.418 76.6846V76.7716C259.591 74.1476 261.472 71.5676 261.472 71.5676C261.472 71.5676 265.321 99.7356 284.216 99.9976C301.056 100.217 307.31 82.9396 307.354 75.7226C310.197 75.7656 315.446 74.0166 315.315 73.9296C315.315 73.9296 321.482 98.5546 338.715 99.8226C346.807 100.435 352.886 95.2736 356.342 92.9126C364.477 99.5166 391.552 107.915 408.654 78.9156C411.103 74.8036 405.898 69.8626 404.98 69.2496ZM23.138 90.2866C14.871 90.2866 9.578 82.6326 9.578 74.4096C9.578 66.1866 14.434 58.5316 22.701 58.5316C26.418 58.5316 28.474 58.9256 31.405 61.4616C31.929 63.5186 33.417 68.2856 34.16 70.4726C35.122 73.3596 36.303 75.8526 37.44 78.5206C35.735 85.4306 30.311 90.2866 23.138 90.2866ZM43.258 61.6816C42.908 61.1126 42.995 61.4616 42.602 60.9376C41.115 56.8266 38.184 47.6406 37.834 37.1876C37.441 25.3776 39.409 11.5126 45.226 11.5126C49.163 11.5126 53.362 39.5926 43.258 61.6816ZM159.647 49.3906C158.729 42.3926 158.685 11.1186 166.165 11.9936C170.32 13.6556 163.54 43.1356 159.647 49.3906ZM214.452 49.3906C213.534 42.3926 213.49 11.1186 220.97 11.9936C225.125 13.6556 218.345 43.1356 214.452 49.3906ZM268.82 49.8276C267.901 42.8296 267.858 11.5566 275.337 12.4306C279.492 14.0496 272.713 43.5736 268.82 49.8276ZM328.83 10.1126C335.697 9.41259 335.391 39.3746 321.657 58.2696C319.863 51.4466 317.152 12.4746 328.83 10.1126ZM357.698 74.6276C355.511 63.4746 361.197 56.1696 367.058 55.3826C369.114 55.0766 372.088 56.3886 372.656 58.8826C373.619 63.5626 372.525 70.5166 359.36 79.3076C359.404 79.3516 358.179 77.0776 357.698 74.6276ZM125.05 40.2496C129.73 40.2496 133.535 36.4446 133.535 31.7646C133.535 27.0846 129.73 23.2796 125.05 23.2796C120.37 23.2796 116.564 27.0846 116.564 31.7646C116.564 36.4446 120.37 40.2496 125.05 40.2496Z" fill="#647BFF"/>
</svg>
